<?xml version="1.0" encoding="UTF-8" standalone="no"?>
<svg
   xmlns:dc="http://purl.org/dc/elements/1.1/"
   xmlns:cc="http://creativecommons.org/ns#"
   xmlns:rdf="http://www.w3.org/1999/02/22-rdf-syntax-ns#"
   xmlns:svg="http://www.w3.org/2000/svg"
   xmlns="http://www.w3.org/2000/svg"
   version="1.1"
   id="svg9135"
   viewBox="0 0 250 99.999997"
   height="100"
   width="250">
  <defs
     id="defs9137" />
  <metadata
     id="metadata9140">
    <rdf:RDF>
      <cc:Work
         rdf:about="">
        <dc:format>image/svg+xml</dc:format>
        <dc:type
           rdf:resource="http://purl.org/dc/dcmitype/StillImage" />
        <dc:title></dc:title>
      </cc:Work>
    </rdf:RDF>
  </metadata>
  <g
     transform="translate(0,-952.36223)"
     id="layer1">
    <g
       id="flowRoot9143"
       style="font-style:normal;font-weight:normal;font-size:40px;line-height:125%;font-family:sans-serif;letter-spacing:0px;word-spacing:0px;fill:#000000;fill-opacity:1;stroke:none;stroke-width:1px;stroke-linecap:butt;stroke-linejoin:miter;stroke-opacity:1"
       transform="translate(-38.385797,861.67621)">
      <path
         id="c"
         style="font-style:normal;font-variant:normal;font-weight:normal;font-stretch:normal;font-size:90px;font-family:'Anime Ace 2.0 BB';-inkscape-font-specification:'Anime Ace 2.0 BB'"
         d="m 120.18773,157.11294 c 0,-2.97 -0.72,-4.5 -2.07,-4.5 -0.54,0 -3.06,1.26 -7.56,3.69 -5.58,3.06 -10.26,5.31 -13.949996,6.84 -6.03,2.43 -11.25,3.69 -15.48,3.69 -4.77,0 -8.82,-1.26 -12.24,-3.87 -3.78,-2.88 -5.67,-6.57 -5.67,-11.16 0,-6.57 3.15,-13.41 9.45,-20.61 7.11,-8.01 17.37,-13.14 30.959996,-15.21 l 1.26,5.67 c 0.81,2.7 1.8,4.05 3.06,4.05 1.53,0 3.24,-0.72 5.13,-2.07 1.89,-1.44 2.79,-2.88 2.79,-4.41 0,-0.99 -0.36,-2.52 -0.99,-4.59 -0.63,-2.07 -0.99,-3.6 -0.99,-4.68 0,-2.97 -0.18,-4.68 -0.54,-5.31 -0.63,-0.99 -2.25,-1.53 -5.04,-1.53 -14.219996,0 -26.639996,4.68 -37.169996,14.13 -10.98,9.81 -16.47,21.69 -16.47,35.73 0,7.29 1.89,13.32 5.67,17.91 4.05,5.04 9.72,7.56 16.83,7.56 10.35,0 22.41,-4.86 36.179996,-14.49 1.35,-0.99 2.79,-1.89 4.23,-2.88 1.71,-1.44 2.61,-2.79 2.61,-3.96 z" />
      <path
         id="e"
         style="font-style:normal;font-variant:normal;font-weight:normal;font-stretch:normal;font-size:90px;font-family:'Anime Ace 2.0 BB';-inkscape-font-specification:'Anime Ace 2.0 BB';fill:#ffffff"
         d="m 187.7918,134.52294 c 0,-1.35 -0.99,-2.61 -2.97,-3.96 -1.71,-1.17 -3.33,-1.8 -4.86,-1.98 -1.26,-0.18 -2.97,-0.27 -5.13,-0.27 -11.25,0 -23.76,2.07 -37.71,6.12 0,-4.5 0.18,-8.82 0.45,-12.87 6.03,-2.61 11.43,-4.32 16.11,-5.13 2.34,-0.45 7.92,-0.99 16.74,-1.8 3.6,-0.27 5.4,-1.44 5.4,-3.42 0,-1.44 -0.81,-3.06 -2.34,-4.77 -1.53,-1.8 -3.42,-2.97 -5.58,-3.42 -1.26,-0.27 -3.51,-0.45 -6.66,-0.36 l -3.69,0 c -3.51,0 -7.38,0.63 -11.79,1.8 l -11.34,3.6 c -2.43,0.72 -3.87,1.35 -4.5,1.8 -1.17,0.9 -1.89,2.16 -2.16,3.87 -0.09,0.18 -0.09,1.71 -0.09,4.59 0,6.66 0.18,12.96 0.54,18.9 l -0.09,0 c -2.25,0.9 -3.33,2.7 -3.33,5.31 0,2.88 1.26,4.77 3.69,5.58 0.45,18 1.08,27.63 1.8,28.89 1.17,1.89 3.51,2.88 7.11,2.88 7.02,0 14.13,-0.63 21.42,-1.89 8.55,-1.53 15.21,-3.78 20.16,-6.57 2.25,-1.35 4.5,-4.68 4.5,-7.29 0,-2.07 -1.17,-3.06 -3.6,-3.06 -0.72,0 -1.62,0.09 -2.7,0.36 l -18.81,4.14 c -7.11,1.35 -13.5,2.07 -18.99,2.07 -1.08,-6.93 -1.71,-14.13 -1.98,-21.6 10.17,-3.42 25.02,-6.21 44.46,-8.46 3.96,-0.45 5.94,-1.53 5.94,-3.06 z" />
      <path
         id="f"
         style="font-style:normal;font-variant:normal;font-weight:normal;font-stretch:normal;font-size:90px;font-family:'Anime Ace 2.0 BB';-inkscape-font-specification:'Anime Ace 2.0 BB'"
         d="m 250.69758,134.79294 c 0,-1.35 -0.9,-2.61 -2.61,-3.78 -1.71,-1.17 -3.24,-1.89 -4.68,-2.16 -1.17,-0.18 -2.7,-0.27 -4.59,-0.27 -10.35,0 -21.87,1.98 -34.56,5.85 0,-4.05 0.09,-8.28 0.36,-12.6 6.03,-2.61 11.43,-4.32 16.2,-5.13 2.52,-0.45 8.1,-1.08 16.65,-1.8 3.69,-0.27 5.49,-1.44 5.49,-3.51 0,-1.44 -0.81,-3.06 -2.34,-4.77 -1.53,-1.71 -3.42,-2.88 -5.58,-3.33 -1.17,-0.27 -3.42,-0.36 -6.66,-0.36 -4.95,0 -9.54,0.45 -13.77,1.44 -1.08,0.27 -5.4,1.62 -13.05,3.96 -2.43,0.72 -3.87,1.35 -4.5,1.8 -1.17,0.9 -1.89,2.25 -2.16,3.96 -0.09,0.36 -0.09,1.98 -0.09,4.77 0,2.7 0.18,8.91 0.54,18.54 -2.25,0.54 -3.42,2.25 -3.42,5.13 0,3.24 1.26,5.22 3.69,5.85 0.36,17.73 0.81,27.18 1.35,28.44 0.54,1.17 1.71,1.8 3.42,1.8 1.62,0 3.15,-0.36 4.59,-1.17 1.71,-0.99 2.61,-2.16 2.61,-3.69 0,-1.89 -0.18,-4.14 -0.63,-6.93 -0.45,-2.25 -0.81,-4.59 -1.17,-6.84 -0.81,-5.49 -1.26,-10.17 -1.35,-13.95 9.99,-3.51 23.58,-6.21 40.77,-8.19 2.79,-0.27 4.5,-0.9 5.13,-1.8 0.27,-0.36 0.36,-0.81 0.36,-1.26 z" />
      <path
         id="i"
         style="font-style:normal;font-variant:normal;font-weight:normal;font-stretch:normal;font-size:90px;font-family:'Anime Ace 2.0 BB';-inkscape-font-specification:'Anime Ace 2.0 BB';fill:#ffffff"
         d="m 271.69992,172.77294 c 0,-1.17 -0.18,-2.7 -0.45,-4.41 l -0.72,-4.41 c -0.81,-6.39 -1.17,-14.13 -1.17,-23.22 0,-7.11 0.36,-14.13 0.99,-21.06 l 0.81,-6.12 c 0.27,-2.43 0.45,-4.5 0.45,-6.12 0,-1.62 -1.17,-2.43 -3.51,-2.43 -5.85,0 -8.82,2.61 -8.82,7.74 0,6.57 0.18,15.39 0.54,26.37 0.45,13.14 0.72,21.96 0.81,26.46 l 0.09,1.53 c 0,0.45 0,1.08 -0.09,1.98 l 0,2.16 c 0,3.87 1.26,5.85 3.87,5.85 1.44,0 2.97,-0.36 4.5,-1.08 1.8,-0.9 2.7,-1.98 2.7,-3.24 z" />
    </g>
  </g>
</svg>
