<?xml version="1.0" encoding="UTF-8" standalone="no"?>
<!-- Generator: Adobe Illustrator 18.0.0, SVG Export Plug-In . SVG Version: 6.00 Build 0)  -->

<svg
   xmlns:dc="http://purl.org/dc/elements/1.1/"
   xmlns:cc="http://creativecommons.org/ns#"
   xmlns:rdf="http://www.w3.org/1999/02/22-rdf-syntax-ns#"
   xmlns:svg="http://www.w3.org/2000/svg"
   xmlns="http://www.w3.org/2000/svg"
   xmlns:sodipodi="http://sodipodi.sourceforge.net/DTD/sodipodi-0.dtd"
   xmlns:inkscape="http://www.inkscape.org/namespaces/inkscape"
   version="1.1"
   id="Layer_1"
   x="0px"
   y="0px"
   viewBox="0 0 1000 25"
   enable-background="new 0 0 1000 25"
   xml:space="preserve"
   inkscape:version="0.92.1 unknown"
   sodipodi:docname="curva_tags.svg"><metadata
     id="metadata9"><rdf:RDF><cc:Work
         rdf:about=""><dc:format>image/svg+xml</dc:format><dc:type
           rdf:resource="http://purl.org/dc/dcmitype/StillImage" /><dc:title></dc:title></cc:Work></rdf:RDF></metadata><defs
     id="defs7" /><sodipodi:namedview
     pagecolor="#ffffff"
     bordercolor="#666666"
     borderopacity="1"
     objecttolerance="10"
     gridtolerance="10"
     guidetolerance="10"
     inkscape:pageopacity="0"
     inkscape:pageshadow="2"
     inkscape:window-width="1024"
     inkscape:window-height="719"
     id="namedview5"
     showgrid="false"
     inkscape:zoom="1.0578317"
     inkscape:cx="492.14492"
     inkscape:cy="76.181231"
     inkscape:window-x="0"
     inkscape:window-y="0"
     inkscape:window-maximized="1"
     inkscape:current-layer="Layer_1" /><path
     d="M0.5,0h1000v4.5L500.5,25L0.5,4.5V0z"
     id="path3"
     clip-rule="evenodd"
     fill-rule="evenodd"
     fill="#EFEFEF"
     style="fill:#ff5555;fill-opacity:0.99607843" /><path
     style="fill:#ffe6d5;stroke-width:0.03929888"
     d="m 500.49998,24.999999 c -0.10013,-0.05628 -0.73183,-1.012058 -2.99626,-4.533404 -1.57815,-2.45415 -2.89417,-4.511426 -2.92449,-4.571727 -0.0303,-0.0603 -0.0551,-0.195485 -0.0551,-0.300411 v -0.190773 l 3.38073,3.474921 c 3.73562,3.839696 3.52232,3.646727 4.03944,3.654514 0.52177,0.0079 0.46287,0.05485 2.33133,-1.86015 l 1.67262,-1.714287 0.50693,0.784997 c 0.56848,0.880299 0.58665,0.935436 0.38101,1.156211 -0.16338,0.175395 -5.97721,4.126974 -6.10903,4.15222 C 500.67066,25.06293 500.57148,25.04018 500.5,25 Z m 1.22673,-3.534163 c -0.077,-0.02832 -0.19037,-0.08909 -0.25185,-0.135047 -0.0615,-0.04596 -1.78734,-1.811125 -3.83524,-3.922596 -3.19911,-3.298428 -3.73258,-3.864781 -3.78836,-4.021834 -0.0588,-0.165546 -0.0639,-0.444128 -0.0544,-2.952426 l 0.0104,-2.769633 0.1066,-0.165674 c 0.0586,-0.09112 0.18068,-0.206385 0.27123,-0.256143 l 0.16464,-0.09047 2.62092,-0.01103 c 2.59651,-0.01093 2.62304,-0.01024 2.84795,0.07442 0.2177,0.08194 0.38033,0.242909 3.95759,3.917115 2.05181,2.107416 3.77701,3.900376 3.83377,3.984355 0.14377,0.212722 0.16748,0.553519 0.0551,0.791718 -0.0571,0.121072 -0.84874,0.959156 -2.68777,2.845604 -2.24978,2.307765 -2.62864,2.680333 -2.76629,2.720309 -0.2005,0.05823 -0.30751,0.05632 -0.4843,-0.0087 z m -4.3159,-10.184367 c 0.30395,-0.144756 0.44605,-0.379222 0.44496,-0.734154 -0.001,-0.36025 -0.22628,-0.646606 -0.587,-0.746523 -0.44115,-0.122193 -0.92352,0.271118 -0.92352,0.753018 0,0.580904 0.56441,0.966333 1.06556,0.727659 z"
     id="path4011"
     inkscape:connector-curvature="0" /></svg>